<mxfile host="app.diagrams.net" agent="Mozilla/5.0 (Windows NT 10.0; Win64; x64) AppleWebKit/537.36 (KHTML, like Gecko) Chrome/130.0.0.0 Safari/537.36" version="24.7.16">
  <diagram name="Page-1" id="fc2ac565-0d4e-3f0d-88b0-a54af1634ed7">
    <mxGraphModel dx="1105" dy="593" grid="1" gridSize="10" guides="1" tooltips="1" connect="0" arrows="1" fold="1" page="1" pageScale="1.5" pageWidth="1169" pageHeight="827" background="none" math="0" shadow="0">
      <root>
        <mxCell id="0" style=";html=1;" />
        <mxCell id="1" style=";html=1;" parent="0" />
        <mxCell id="75" value="1) Analizar el nicho" style="align=left;strokeColor=#CCCCCC;html=1;" parent="1" vertex="1">
          <mxGeometry x="297.0000000000003" y="149.99999999999977" width="319.9999999999997" height="20.000000000000014" as="geometry" />
        </mxCell>
        <mxCell id="80" value="2) Analizar la competencia" style="align=left;strokeColor=#CCCCCC;html=1;" parent="1" vertex="1">
          <mxGeometry x="297" y="170.00000000000023" width="320" height="20" as="geometry" />
        </mxCell>
        <mxCell id="85" value="3) Buscar sede o lugar fisico" style="align=left;strokeColor=#CCCCCC;html=1;" parent="1" vertex="1">
          <mxGeometry x="296.9999999999999" y="190.00000000000023" width="320.0000000000001" height="20" as="geometry" />
        </mxCell>
        <mxCell id="90" value="4) Plasmar la idea para exponerla" style="align=left;strokeColor=#CCCCCC;html=1;" parent="1" vertex="1">
          <mxGeometry x="296.9999999999999" y="210.00000000000045" width="320.0000000000001" height="20" as="geometry" />
        </mxCell>
        <mxCell id="95" value="5) Buscar financiamiento" style="align=left;strokeColor=#CCCCCC;html=1;" parent="1" vertex="1">
          <mxGeometry x="297.0000000000006" y="230.00000000000068" width="319.9999999999994" height="20" as="geometry" />
        </mxCell>
        <mxCell id="100" value="6) Buscar equipamiento (Hardware)" style="align=left;strokeColor=#CCCCCC;html=1;" parent="1" vertex="1">
          <mxGeometry x="297.0000000000006" y="250.00000000000057" width="319.9999999999994" height="20" as="geometry" />
        </mxCell>
        <mxCell id="2" value="Tareas / Tiempo en Dias" style="strokeWidth=1;fontStyle=0;html=1;" parent="1" vertex="1">
          <mxGeometry x="297" y="130" width="320" height="20" as="geometry" />
        </mxCell>
        <mxCell id="67c90442a009f359-289" value="7) Planificar un equipo de desarrollo" style="align=left;strokeColor=#CCCCCC;html=1;" parent="1" vertex="1">
          <mxGeometry x="297.0000000000006" y="270.00000000000057" width="319.9999999999994" height="20" as="geometry" />
        </mxCell>
        <mxCell id="67c90442a009f359-290" value="8) Division de roles" style="align=left;strokeColor=#CCCCCC;html=1;" parent="1" vertex="1">
          <mxGeometry x="297.0000000000006" y="290.00000000000057" width="319.9999999999994" height="20" as="geometry" />
        </mxCell>
        <mxCell id="67c90442a009f359-291" value="" style="align=left;strokeColor=#CCCCCC;html=1;" parent="1" vertex="1">
          <mxGeometry x="617" y="150" width="7283" height="20" as="geometry" />
        </mxCell>
        <mxCell id="4" value="1" style="strokeWidth=1;fontStyle=0;html=1;" parent="1" vertex="1">
          <mxGeometry x="617" y="130" width="70" height="20" as="geometry" />
        </mxCell>
        <mxCell id="67c90442a009f359-278" value="2" style="strokeWidth=1;fontStyle=0;html=1;" parent="1" vertex="1">
          <mxGeometry x="687" y="130" width="70" height="20" as="geometry" />
        </mxCell>
        <mxCell id="67c90442a009f359-279" value="3" style="strokeWidth=1;fontStyle=0;html=1;" parent="1" vertex="1">
          <mxGeometry x="757" y="130" width="70" height="20" as="geometry" />
        </mxCell>
        <mxCell id="67c90442a009f359-280" value="4" style="strokeWidth=1;fontStyle=0;html=1;" parent="1" vertex="1">
          <mxGeometry x="827" y="130" width="70" height="20" as="geometry" />
        </mxCell>
        <mxCell id="67c90442a009f359-281" value="5" style="strokeWidth=1;fontStyle=0;html=1;" parent="1" vertex="1">
          <mxGeometry x="897" y="130" width="70" height="20" as="geometry" />
        </mxCell>
        <mxCell id="67c90442a009f359-282" value="6" style="strokeWidth=1;fontStyle=0;html=1;" parent="1" vertex="1">
          <mxGeometry x="967" y="130" width="70" height="20" as="geometry" />
        </mxCell>
        <mxCell id="67c90442a009f359-283" value="7" style="strokeWidth=1;fontStyle=0;html=1;" parent="1" vertex="1">
          <mxGeometry x="1037" y="130" width="70" height="20" as="geometry" />
        </mxCell>
        <mxCell id="67c90442a009f359-284" value="8" style="strokeWidth=1;fontStyle=0;html=1;" parent="1" vertex="1">
          <mxGeometry x="1107" y="130" width="70" height="20" as="geometry" />
        </mxCell>
        <mxCell id="67c90442a009f359-285" value="9" style="strokeWidth=1;fontStyle=0;html=1;" parent="1" vertex="1">
          <mxGeometry x="1177" y="130" width="70" height="20" as="geometry" />
        </mxCell>
        <mxCell id="67c90442a009f359-286" value="10" style="strokeWidth=1;fontStyle=0;html=1;" parent="1" vertex="1">
          <mxGeometry x="1247" y="130" width="70" height="20" as="geometry" />
        </mxCell>
        <mxCell id="67c90442a009f359-287" value="11" style="strokeWidth=1;fontStyle=0;html=1;" parent="1" vertex="1">
          <mxGeometry x="1317" y="130" width="70" height="20" as="geometry" />
        </mxCell>
        <mxCell id="67c90442a009f359-288" value="12" style="strokeWidth=1;fontStyle=0;html=1;" parent="1" vertex="1">
          <mxGeometry x="1387" y="130" width="70" height="20" as="geometry" />
        </mxCell>
        <mxCell id="67c90442a009f359-292" value="" style="align=left;strokeColor=#CCCCCC;html=1;" parent="1" vertex="1">
          <mxGeometry x="617" y="170" width="7283" height="20" as="geometry" />
        </mxCell>
        <mxCell id="67c90442a009f359-293" value="" style="align=left;strokeColor=#CCCCCC;html=1;" parent="1" vertex="1">
          <mxGeometry x="617" y="190" width="7283" height="20" as="geometry" />
        </mxCell>
        <mxCell id="67c90442a009f359-294" value="" style="align=left;strokeColor=#CCCCCC;html=1;" parent="1" vertex="1">
          <mxGeometry x="617" y="210" width="7283" height="20" as="geometry" />
        </mxCell>
        <mxCell id="67c90442a009f359-295" value="" style="align=left;strokeColor=#CCCCCC;html=1;" parent="1" vertex="1">
          <mxGeometry x="617" y="230" width="7283" height="20" as="geometry" />
        </mxCell>
        <mxCell id="67c90442a009f359-296" value="" style="align=left;strokeColor=#CCCCCC;html=1;" parent="1" vertex="1">
          <mxGeometry x="617" y="250" width="7283" height="20" as="geometry" />
        </mxCell>
        <mxCell id="67c90442a009f359-297" value="" style="align=left;strokeColor=#CCCCCC;html=1;" parent="1" vertex="1">
          <mxGeometry x="617" y="270" width="7283" height="20" as="geometry" />
        </mxCell>
        <mxCell id="67c90442a009f359-298" value="" style="align=left;strokeColor=#CCCCCC;html=1;" parent="1" vertex="1">
          <mxGeometry x="617" y="290" width="7283" height="20" as="geometry" />
        </mxCell>
        <mxCell id="67c90442a009f359-299" value="1" style="whiteSpace=wrap;html=1;strokeWidth=2;fillColor=#CCCCCC;gradientColor=none;fontSize=14;align=center;strokeColor=#999999;" parent="1" vertex="1">
          <mxGeometry x="617" y="150" width="210" height="20" as="geometry" />
        </mxCell>
        <mxCell id="67c90442a009f359-300" value="2" style="whiteSpace=wrap;html=1;strokeWidth=2;fillColor=#CCCCCC;gradientColor=none;fontSize=14;align=center;strokeColor=#999999;" parent="1" vertex="1">
          <mxGeometry x="827" y="170" width="283" height="20" as="geometry" />
        </mxCell>
        <mxCell id="67c90442a009f359-301" value="3" style="whiteSpace=wrap;html=1;strokeWidth=2;fillColor=#CCCCCC;gradientColor=none;fontSize=14;align=center;strokeColor=#999999;" parent="1" vertex="1">
          <mxGeometry x="827" y="190" width="423" height="20" as="geometry" />
        </mxCell>
        <mxCell id="67c90442a009f359-302" value="4" style="whiteSpace=wrap;html=1;strokeWidth=2;fillColor=#CCCCCC;gradientColor=none;fontSize=14;align=center;strokeColor=#999999;" parent="1" vertex="1">
          <mxGeometry x="1250" y="210" width="140" height="20" as="geometry" />
        </mxCell>
        <mxCell id="67c90442a009f359-303" value="5" style="whiteSpace=wrap;html=1;strokeWidth=2;fillColor=#CCCCCC;gradientColor=none;fontSize=14;align=center;strokeColor=#999999;" parent="1" vertex="1">
          <mxGeometry x="1390" y="230" width="700" height="20" as="geometry" />
        </mxCell>
        <mxCell id="67c90442a009f359-304" value="6" style="whiteSpace=wrap;html=1;strokeWidth=2;fillColor=#CCCCCC;gradientColor=none;fontSize=14;align=center;strokeColor=#999999;" parent="1" vertex="1">
          <mxGeometry x="2090" y="250" width="280" height="20" as="geometry" />
        </mxCell>
        <mxCell id="67c90442a009f359-305" value="7" style="whiteSpace=wrap;html=1;strokeWidth=2;fillColor=#CCCCCC;gradientColor=none;fontSize=14;align=center;strokeColor=#999999;" parent="1" vertex="1">
          <mxGeometry x="2090" y="270" width="210" height="20" as="geometry" />
        </mxCell>
        <mxCell id="67c90442a009f359-306" value="8" style="whiteSpace=wrap;html=1;strokeWidth=2;fillColor=#CCCCCC;gradientColor=none;fontSize=14;align=center;strokeColor=#999999;" parent="1" vertex="1">
          <mxGeometry x="2300" y="290" width="143" height="20" as="geometry" />
        </mxCell>
        <mxCell id="WbGuoj4w0zxw0xvTcWQJ-105" value="" style="align=left;strokeColor=#CCCCCC;html=1;" vertex="1" parent="1">
          <mxGeometry x="617" y="310" width="7283" height="20" as="geometry" />
        </mxCell>
        <mxCell id="WbGuoj4w0zxw0xvTcWQJ-106" value="9) Crear un plan de negocio" style="align=left;strokeColor=#CCCCCC;html=1;" vertex="1" parent="1">
          <mxGeometry x="297.0000000000006" y="310.00000000000057" width="319.9999999999994" height="20" as="geometry" />
        </mxCell>
        <mxCell id="WbGuoj4w0zxw0xvTcWQJ-107" value="10) Crear un software de modelo&amp;nbsp;" style="align=left;strokeColor=#CCCCCC;html=1;" vertex="1" parent="1">
          <mxGeometry x="297.0000000000006" y="330.00000000000057" width="319.9999999999994" height="20" as="geometry" />
        </mxCell>
        <mxCell id="WbGuoj4w0zxw0xvTcWQJ-108" value="11) Generar pruebas de mercado" style="align=left;strokeColor=#CCCCCC;html=1;" vertex="1" parent="1">
          <mxGeometry x="297.0000000000006" y="350.00000000000057" width="319.9999999999994" height="20" as="geometry" />
        </mxCell>
        <mxCell id="WbGuoj4w0zxw0xvTcWQJ-109" value="12) Obtener feedback" style="align=left;strokeColor=#CCCCCC;html=1;" vertex="1" parent="1">
          <mxGeometry x="297.0000000000006" y="370.00000000000057" width="319.9999999999994" height="20" as="geometry" />
        </mxCell>
        <mxCell id="WbGuoj4w0zxw0xvTcWQJ-110" value="13) Ajustar software" style="align=left;strokeColor=#CCCCCC;html=1;" vertex="1" parent="1">
          <mxGeometry x="297.0000000000006" y="390.00000000000057" width="319.9999999999994" height="20" as="geometry" />
        </mxCell>
        <mxCell id="WbGuoj4w0zxw0xvTcWQJ-111" value="14) Desarrollar una estrategia de marketing" style="align=left;strokeColor=#CCCCCC;html=1;" vertex="1" parent="1">
          <mxGeometry x="297.0000000000006" y="410.00000000000057" width="319.9999999999994" height="20" as="geometry" />
        </mxCell>
        <mxCell id="WbGuoj4w0zxw0xvTcWQJ-112" value="15) Lanza el producto" style="align=left;strokeColor=#CCCCCC;html=1;" vertex="1" parent="1">
          <mxGeometry x="297.0000000000006" y="430.00000000000057" width="319.9999999999994" height="20" as="geometry" />
        </mxCell>
        <mxCell id="WbGuoj4w0zxw0xvTcWQJ-113" value="16) Evaluacion post lanzamiento" style="align=left;strokeColor=#CCCCCC;html=1;" vertex="1" parent="1">
          <mxGeometry x="297.0000000000006" y="450.00000000000057" width="319.9999999999994" height="20" as="geometry" />
        </mxCell>
        <mxCell id="WbGuoj4w0zxw0xvTcWQJ-114" value="" style="align=left;strokeColor=#CCCCCC;html=1;" vertex="1" parent="1">
          <mxGeometry x="617" y="330" width="7283" height="20" as="geometry" />
        </mxCell>
        <mxCell id="WbGuoj4w0zxw0xvTcWQJ-115" value="" style="align=left;strokeColor=#CCCCCC;html=1;" vertex="1" parent="1">
          <mxGeometry x="617" y="350" width="7283" height="20" as="geometry" />
        </mxCell>
        <mxCell id="WbGuoj4w0zxw0xvTcWQJ-116" value="" style="align=left;strokeColor=#CCCCCC;html=1;" vertex="1" parent="1">
          <mxGeometry x="617" y="370" width="7283" height="20" as="geometry" />
        </mxCell>
        <mxCell id="WbGuoj4w0zxw0xvTcWQJ-117" value="" style="align=left;strokeColor=#CCCCCC;html=1;" vertex="1" parent="1">
          <mxGeometry x="617" y="390" width="7283" height="20" as="geometry" />
        </mxCell>
        <mxCell id="WbGuoj4w0zxw0xvTcWQJ-118" value="" style="align=left;strokeColor=#CCCCCC;html=1;" vertex="1" parent="1">
          <mxGeometry x="617" y="410" width="7283" height="20" as="geometry" />
        </mxCell>
        <mxCell id="WbGuoj4w0zxw0xvTcWQJ-119" value="" style="align=left;strokeColor=#CCCCCC;html=1;" vertex="1" parent="1">
          <mxGeometry x="617" y="430" width="7283" height="20" as="geometry" />
        </mxCell>
        <mxCell id="WbGuoj4w0zxw0xvTcWQJ-120" value="" style="align=left;strokeColor=#CCCCCC;html=1;" vertex="1" parent="1">
          <mxGeometry x="617" y="450" width="7283" height="20" as="geometry" />
        </mxCell>
        <mxCell id="WbGuoj4w0zxw0xvTcWQJ-121" value="13" style="strokeWidth=1;fontStyle=0;html=1;" vertex="1" parent="1">
          <mxGeometry x="1457" y="130" width="70" height="20" as="geometry" />
        </mxCell>
        <mxCell id="WbGuoj4w0zxw0xvTcWQJ-122" value="14" style="strokeWidth=1;fontStyle=0;html=1;" vertex="1" parent="1">
          <mxGeometry x="1527" y="130" width="70" height="20" as="geometry" />
        </mxCell>
        <mxCell id="WbGuoj4w0zxw0xvTcWQJ-123" value="15" style="strokeWidth=1;fontStyle=0;html=1;" vertex="1" parent="1">
          <mxGeometry x="1597" y="130" width="70" height="20" as="geometry" />
        </mxCell>
        <mxCell id="WbGuoj4w0zxw0xvTcWQJ-124" value="16" style="strokeWidth=1;fontStyle=0;html=1;" vertex="1" parent="1">
          <mxGeometry x="1667" y="130" width="70" height="20" as="geometry" />
        </mxCell>
        <mxCell id="WbGuoj4w0zxw0xvTcWQJ-125" value="17" style="strokeWidth=1;fontStyle=0;html=1;" vertex="1" parent="1">
          <mxGeometry x="1737" y="130" width="70" height="20" as="geometry" />
        </mxCell>
        <mxCell id="WbGuoj4w0zxw0xvTcWQJ-126" value="18" style="strokeWidth=1;fontStyle=0;html=1;" vertex="1" parent="1">
          <mxGeometry x="1807" y="130" width="70" height="20" as="geometry" />
        </mxCell>
        <mxCell id="WbGuoj4w0zxw0xvTcWQJ-127" value="19" style="strokeWidth=1;fontStyle=0;html=1;" vertex="1" parent="1">
          <mxGeometry x="1877" y="130" width="70" height="20" as="geometry" />
        </mxCell>
        <mxCell id="WbGuoj4w0zxw0xvTcWQJ-128" value="20" style="strokeWidth=1;fontStyle=0;html=1;" vertex="1" parent="1">
          <mxGeometry x="1947" y="130" width="70" height="20" as="geometry" />
        </mxCell>
        <mxCell id="WbGuoj4w0zxw0xvTcWQJ-129" value="21" style="strokeWidth=1;fontStyle=0;html=1;" vertex="1" parent="1">
          <mxGeometry x="2017" y="130" width="70" height="20" as="geometry" />
        </mxCell>
        <mxCell id="WbGuoj4w0zxw0xvTcWQJ-130" value="22" style="strokeWidth=1;fontStyle=0;html=1;" vertex="1" parent="1">
          <mxGeometry x="2087" y="130" width="70" height="20" as="geometry" />
        </mxCell>
        <mxCell id="WbGuoj4w0zxw0xvTcWQJ-131" value="23" style="strokeWidth=1;fontStyle=0;html=1;" vertex="1" parent="1">
          <mxGeometry x="2157" y="130" width="70" height="20" as="geometry" />
        </mxCell>
        <mxCell id="WbGuoj4w0zxw0xvTcWQJ-132" value="24" style="strokeWidth=1;fontStyle=0;html=1;" vertex="1" parent="1">
          <mxGeometry x="2227" y="130" width="70" height="20" as="geometry" />
        </mxCell>
        <mxCell id="WbGuoj4w0zxw0xvTcWQJ-133" value="25" style="strokeWidth=1;fontStyle=0;html=1;" vertex="1" parent="1">
          <mxGeometry x="2297" y="130" width="70" height="20" as="geometry" />
        </mxCell>
        <mxCell id="WbGuoj4w0zxw0xvTcWQJ-134" value="26" style="strokeWidth=1;fontStyle=0;html=1;" vertex="1" parent="1">
          <mxGeometry x="2367" y="130" width="70" height="20" as="geometry" />
        </mxCell>
        <mxCell id="WbGuoj4w0zxw0xvTcWQJ-135" value="27" style="strokeWidth=1;fontStyle=0;html=1;" vertex="1" parent="1">
          <mxGeometry x="2437" y="130" width="70" height="20" as="geometry" />
        </mxCell>
        <mxCell id="WbGuoj4w0zxw0xvTcWQJ-136" value="28" style="strokeWidth=1;fontStyle=0;html=1;" vertex="1" parent="1">
          <mxGeometry x="2507" y="130" width="70" height="20" as="geometry" />
        </mxCell>
        <mxCell id="WbGuoj4w0zxw0xvTcWQJ-137" value="29" style="strokeWidth=1;fontStyle=0;html=1;" vertex="1" parent="1">
          <mxGeometry x="2577" y="130" width="70" height="20" as="geometry" />
        </mxCell>
        <mxCell id="WbGuoj4w0zxw0xvTcWQJ-138" value="30" style="strokeWidth=1;fontStyle=0;html=1;" vertex="1" parent="1">
          <mxGeometry x="2647" y="130" width="70" height="20" as="geometry" />
        </mxCell>
        <mxCell id="WbGuoj4w0zxw0xvTcWQJ-139" value="31" style="strokeWidth=1;fontStyle=0;html=1;" vertex="1" parent="1">
          <mxGeometry x="2717" y="130" width="70" height="20" as="geometry" />
        </mxCell>
        <mxCell id="WbGuoj4w0zxw0xvTcWQJ-140" value="32" style="strokeWidth=1;fontStyle=0;html=1;" vertex="1" parent="1">
          <mxGeometry x="2787" y="130" width="70" height="20" as="geometry" />
        </mxCell>
        <mxCell id="WbGuoj4w0zxw0xvTcWQJ-141" value="33" style="strokeWidth=1;fontStyle=0;html=1;" vertex="1" parent="1">
          <mxGeometry x="2857" y="130" width="70" height="20" as="geometry" />
        </mxCell>
        <mxCell id="WbGuoj4w0zxw0xvTcWQJ-142" value="34" style="strokeWidth=1;fontStyle=0;html=1;" vertex="1" parent="1">
          <mxGeometry x="2927" y="130" width="70" height="20" as="geometry" />
        </mxCell>
        <mxCell id="WbGuoj4w0zxw0xvTcWQJ-143" value="35" style="strokeWidth=1;fontStyle=0;html=1;" vertex="1" parent="1">
          <mxGeometry x="2997" y="130" width="70" height="20" as="geometry" />
        </mxCell>
        <mxCell id="WbGuoj4w0zxw0xvTcWQJ-144" value="36" style="strokeWidth=1;fontStyle=0;html=1;" vertex="1" parent="1">
          <mxGeometry x="3067" y="130" width="70" height="20" as="geometry" />
        </mxCell>
        <mxCell id="WbGuoj4w0zxw0xvTcWQJ-145" value="37" style="strokeWidth=1;fontStyle=0;html=1;" vertex="1" parent="1">
          <mxGeometry x="3137" y="130" width="70" height="20" as="geometry" />
        </mxCell>
        <mxCell id="WbGuoj4w0zxw0xvTcWQJ-146" value="38" style="strokeWidth=1;fontStyle=0;html=1;" vertex="1" parent="1">
          <mxGeometry x="3207" y="130" width="70" height="20" as="geometry" />
        </mxCell>
        <mxCell id="WbGuoj4w0zxw0xvTcWQJ-147" value="39" style="strokeWidth=1;fontStyle=0;html=1;" vertex="1" parent="1">
          <mxGeometry x="3277" y="130" width="70" height="20" as="geometry" />
        </mxCell>
        <mxCell id="WbGuoj4w0zxw0xvTcWQJ-148" value="40" style="strokeWidth=1;fontStyle=0;html=1;" vertex="1" parent="1">
          <mxGeometry x="3347" y="130" width="70" height="20" as="geometry" />
        </mxCell>
        <mxCell id="WbGuoj4w0zxw0xvTcWQJ-149" value="41" style="strokeWidth=1;fontStyle=0;html=1;" vertex="1" parent="1">
          <mxGeometry x="3417" y="130" width="70" height="20" as="geometry" />
        </mxCell>
        <mxCell id="WbGuoj4w0zxw0xvTcWQJ-162" value="42" style="strokeWidth=1;fontStyle=0;html=1;" vertex="1" parent="1">
          <mxGeometry x="3487" y="130" width="70" height="20" as="geometry" />
        </mxCell>
        <mxCell id="WbGuoj4w0zxw0xvTcWQJ-163" value="43" style="strokeWidth=1;fontStyle=0;html=1;" vertex="1" parent="1">
          <mxGeometry x="3557" y="130" width="70" height="20" as="geometry" />
        </mxCell>
        <mxCell id="WbGuoj4w0zxw0xvTcWQJ-164" value="44" style="strokeWidth=1;fontStyle=0;html=1;" vertex="1" parent="1">
          <mxGeometry x="3627" y="130" width="70" height="20" as="geometry" />
        </mxCell>
        <mxCell id="WbGuoj4w0zxw0xvTcWQJ-165" value="45" style="strokeWidth=1;fontStyle=0;html=1;" vertex="1" parent="1">
          <mxGeometry x="3697" y="130" width="70" height="20" as="geometry" />
        </mxCell>
        <mxCell id="WbGuoj4w0zxw0xvTcWQJ-166" value="46" style="strokeWidth=1;fontStyle=0;html=1;" vertex="1" parent="1">
          <mxGeometry x="3767" y="130" width="70" height="20" as="geometry" />
        </mxCell>
        <mxCell id="WbGuoj4w0zxw0xvTcWQJ-167" value="47" style="strokeWidth=1;fontStyle=0;html=1;" vertex="1" parent="1">
          <mxGeometry x="3837" y="130" width="70" height="20" as="geometry" />
        </mxCell>
        <mxCell id="WbGuoj4w0zxw0xvTcWQJ-168" value="48" style="strokeWidth=1;fontStyle=0;html=1;" vertex="1" parent="1">
          <mxGeometry x="3907" y="130" width="70" height="20" as="geometry" />
        </mxCell>
        <mxCell id="WbGuoj4w0zxw0xvTcWQJ-169" value="49" style="strokeWidth=1;fontStyle=0;html=1;" vertex="1" parent="1">
          <mxGeometry x="3977" y="130" width="70" height="20" as="geometry" />
        </mxCell>
        <mxCell id="WbGuoj4w0zxw0xvTcWQJ-170" value="50" style="strokeWidth=1;fontStyle=0;html=1;" vertex="1" parent="1">
          <mxGeometry x="4047" y="130" width="70" height="20" as="geometry" />
        </mxCell>
        <mxCell id="WbGuoj4w0zxw0xvTcWQJ-171" value="51" style="strokeWidth=1;fontStyle=0;html=1;" vertex="1" parent="1">
          <mxGeometry x="4117" y="130" width="70" height="20" as="geometry" />
        </mxCell>
        <mxCell id="WbGuoj4w0zxw0xvTcWQJ-172" value="52" style="strokeWidth=1;fontStyle=0;html=1;" vertex="1" parent="1">
          <mxGeometry x="4187" y="130" width="70" height="20" as="geometry" />
        </mxCell>
        <mxCell id="WbGuoj4w0zxw0xvTcWQJ-173" value="53" style="strokeWidth=1;fontStyle=0;html=1;" vertex="1" parent="1">
          <mxGeometry x="4257" y="130" width="70" height="20" as="geometry" />
        </mxCell>
        <mxCell id="WbGuoj4w0zxw0xvTcWQJ-174" value="54" style="strokeWidth=1;fontStyle=0;html=1;" vertex="1" parent="1">
          <mxGeometry x="4327" y="130" width="70" height="20" as="geometry" />
        </mxCell>
        <mxCell id="WbGuoj4w0zxw0xvTcWQJ-175" value="55" style="strokeWidth=1;fontStyle=0;html=1;" vertex="1" parent="1">
          <mxGeometry x="4397" y="130" width="70" height="20" as="geometry" />
        </mxCell>
        <mxCell id="WbGuoj4w0zxw0xvTcWQJ-176" value="56" style="strokeWidth=1;fontStyle=0;html=1;" vertex="1" parent="1">
          <mxGeometry x="4467" y="130" width="70" height="20" as="geometry" />
        </mxCell>
        <mxCell id="WbGuoj4w0zxw0xvTcWQJ-177" value="57" style="strokeWidth=1;fontStyle=0;html=1;" vertex="1" parent="1">
          <mxGeometry x="4537" y="130" width="70" height="20" as="geometry" />
        </mxCell>
        <mxCell id="WbGuoj4w0zxw0xvTcWQJ-178" value="58" style="strokeWidth=1;fontStyle=0;html=1;" vertex="1" parent="1">
          <mxGeometry x="4607" y="130" width="70" height="20" as="geometry" />
        </mxCell>
        <mxCell id="WbGuoj4w0zxw0xvTcWQJ-179" value="59" style="strokeWidth=1;fontStyle=0;html=1;" vertex="1" parent="1">
          <mxGeometry x="4677" y="130" width="70" height="20" as="geometry" />
        </mxCell>
        <mxCell id="WbGuoj4w0zxw0xvTcWQJ-180" value="60" style="strokeWidth=1;fontStyle=0;html=1;" vertex="1" parent="1">
          <mxGeometry x="4747" y="130" width="70" height="20" as="geometry" />
        </mxCell>
        <mxCell id="WbGuoj4w0zxw0xvTcWQJ-181" value="61" style="strokeWidth=1;fontStyle=0;html=1;" vertex="1" parent="1">
          <mxGeometry x="4817" y="130" width="70" height="20" as="geometry" />
        </mxCell>
        <mxCell id="WbGuoj4w0zxw0xvTcWQJ-182" value="62" style="strokeWidth=1;fontStyle=0;html=1;" vertex="1" parent="1">
          <mxGeometry x="4887" y="130" width="70" height="20" as="geometry" />
        </mxCell>
        <mxCell id="WbGuoj4w0zxw0xvTcWQJ-183" value="63" style="strokeWidth=1;fontStyle=0;html=1;" vertex="1" parent="1">
          <mxGeometry x="4957" y="130" width="70" height="20" as="geometry" />
        </mxCell>
        <mxCell id="WbGuoj4w0zxw0xvTcWQJ-184" value="64" style="strokeWidth=1;fontStyle=0;html=1;" vertex="1" parent="1">
          <mxGeometry x="5027" y="130" width="70" height="20" as="geometry" />
        </mxCell>
        <mxCell id="WbGuoj4w0zxw0xvTcWQJ-185" value="65" style="strokeWidth=1;fontStyle=0;html=1;" vertex="1" parent="1">
          <mxGeometry x="5097" y="130" width="70" height="20" as="geometry" />
        </mxCell>
        <mxCell id="WbGuoj4w0zxw0xvTcWQJ-186" value="66" style="strokeWidth=1;fontStyle=0;html=1;" vertex="1" parent="1">
          <mxGeometry x="5167" y="130" width="70" height="20" as="geometry" />
        </mxCell>
        <mxCell id="WbGuoj4w0zxw0xvTcWQJ-187" value="67" style="strokeWidth=1;fontStyle=0;html=1;" vertex="1" parent="1">
          <mxGeometry x="5237" y="130" width="70" height="20" as="geometry" />
        </mxCell>
        <mxCell id="WbGuoj4w0zxw0xvTcWQJ-188" value="68" style="strokeWidth=1;fontStyle=0;html=1;" vertex="1" parent="1">
          <mxGeometry x="5307" y="130" width="70" height="20" as="geometry" />
        </mxCell>
        <mxCell id="WbGuoj4w0zxw0xvTcWQJ-189" value="69" style="strokeWidth=1;fontStyle=0;html=1;" vertex="1" parent="1">
          <mxGeometry x="5377" y="130" width="70" height="20" as="geometry" />
        </mxCell>
        <mxCell id="WbGuoj4w0zxw0xvTcWQJ-190" value="70" style="strokeWidth=1;fontStyle=0;html=1;" vertex="1" parent="1">
          <mxGeometry x="5447" y="130" width="70" height="20" as="geometry" />
        </mxCell>
        <mxCell id="WbGuoj4w0zxw0xvTcWQJ-191" value="71" style="strokeWidth=1;fontStyle=0;html=1;" vertex="1" parent="1">
          <mxGeometry x="5517" y="130" width="70" height="20" as="geometry" />
        </mxCell>
        <mxCell id="WbGuoj4w0zxw0xvTcWQJ-192" value="72" style="strokeWidth=1;fontStyle=0;html=1;" vertex="1" parent="1">
          <mxGeometry x="5587" y="130" width="70" height="20" as="geometry" />
        </mxCell>
        <mxCell id="WbGuoj4w0zxw0xvTcWQJ-193" value="73" style="strokeWidth=1;fontStyle=0;html=1;" vertex="1" parent="1">
          <mxGeometry x="5657" y="130" width="70" height="20" as="geometry" />
        </mxCell>
        <mxCell id="WbGuoj4w0zxw0xvTcWQJ-194" value="74" style="strokeWidth=1;fontStyle=0;html=1;" vertex="1" parent="1">
          <mxGeometry x="5727" y="130" width="70" height="20" as="geometry" />
        </mxCell>
        <mxCell id="WbGuoj4w0zxw0xvTcWQJ-195" value="75" style="strokeWidth=1;fontStyle=0;html=1;" vertex="1" parent="1">
          <mxGeometry x="5797" y="130" width="70" height="20" as="geometry" />
        </mxCell>
        <mxCell id="WbGuoj4w0zxw0xvTcWQJ-196" value="76" style="strokeWidth=1;fontStyle=0;html=1;" vertex="1" parent="1">
          <mxGeometry x="5867" y="130" width="70" height="20" as="geometry" />
        </mxCell>
        <mxCell id="WbGuoj4w0zxw0xvTcWQJ-197" value="77" style="strokeWidth=1;fontStyle=0;html=1;" vertex="1" parent="1">
          <mxGeometry x="5937" y="130" width="70" height="20" as="geometry" />
        </mxCell>
        <mxCell id="WbGuoj4w0zxw0xvTcWQJ-198" value="78" style="strokeWidth=1;fontStyle=0;html=1;" vertex="1" parent="1">
          <mxGeometry x="6007" y="130" width="70" height="20" as="geometry" />
        </mxCell>
        <mxCell id="WbGuoj4w0zxw0xvTcWQJ-199" value="79" style="strokeWidth=1;fontStyle=0;html=1;" vertex="1" parent="1">
          <mxGeometry x="6077" y="130" width="70" height="20" as="geometry" />
        </mxCell>
        <mxCell id="WbGuoj4w0zxw0xvTcWQJ-200" value="80" style="strokeWidth=1;fontStyle=0;html=1;" vertex="1" parent="1">
          <mxGeometry x="6147" y="130" width="70" height="20" as="geometry" />
        </mxCell>
        <mxCell id="WbGuoj4w0zxw0xvTcWQJ-201" value="81" style="strokeWidth=1;fontStyle=0;html=1;" vertex="1" parent="1">
          <mxGeometry x="6217" y="130" width="70" height="20" as="geometry" />
        </mxCell>
        <mxCell id="WbGuoj4w0zxw0xvTcWQJ-202" value="82" style="strokeWidth=1;fontStyle=0;html=1;" vertex="1" parent="1">
          <mxGeometry x="6287" y="130" width="70" height="20" as="geometry" />
        </mxCell>
        <mxCell id="WbGuoj4w0zxw0xvTcWQJ-203" value="83" style="strokeWidth=1;fontStyle=0;html=1;" vertex="1" parent="1">
          <mxGeometry x="6357" y="130" width="70" height="20" as="geometry" />
        </mxCell>
        <mxCell id="WbGuoj4w0zxw0xvTcWQJ-204" value="84" style="strokeWidth=1;fontStyle=0;html=1;" vertex="1" parent="1">
          <mxGeometry x="6427" y="130" width="70" height="20" as="geometry" />
        </mxCell>
        <mxCell id="WbGuoj4w0zxw0xvTcWQJ-205" value="85" style="strokeWidth=1;fontStyle=0;html=1;" vertex="1" parent="1">
          <mxGeometry x="6497" y="130" width="70" height="20" as="geometry" />
        </mxCell>
        <mxCell id="WbGuoj4w0zxw0xvTcWQJ-206" value="86" style="strokeWidth=1;fontStyle=0;html=1;" vertex="1" parent="1">
          <mxGeometry x="6567" y="130" width="70" height="20" as="geometry" />
        </mxCell>
        <mxCell id="WbGuoj4w0zxw0xvTcWQJ-207" value="87" style="strokeWidth=1;fontStyle=0;html=1;" vertex="1" parent="1">
          <mxGeometry x="6637" y="130" width="70" height="20" as="geometry" />
        </mxCell>
        <mxCell id="WbGuoj4w0zxw0xvTcWQJ-208" value="88" style="strokeWidth=1;fontStyle=0;html=1;" vertex="1" parent="1">
          <mxGeometry x="6707" y="130" width="70" height="20" as="geometry" />
        </mxCell>
        <mxCell id="WbGuoj4w0zxw0xvTcWQJ-209" value="89" style="strokeWidth=1;fontStyle=0;html=1;" vertex="1" parent="1">
          <mxGeometry x="6777" y="130" width="70" height="20" as="geometry" />
        </mxCell>
        <mxCell id="WbGuoj4w0zxw0xvTcWQJ-210" value="90" style="strokeWidth=1;fontStyle=0;html=1;" vertex="1" parent="1">
          <mxGeometry x="6847" y="130" width="70" height="20" as="geometry" />
        </mxCell>
        <mxCell id="WbGuoj4w0zxw0xvTcWQJ-211" value="91" style="strokeWidth=1;fontStyle=0;html=1;" vertex="1" parent="1">
          <mxGeometry x="6917" y="130" width="70" height="20" as="geometry" />
        </mxCell>
        <mxCell id="WbGuoj4w0zxw0xvTcWQJ-212" value="92" style="strokeWidth=1;fontStyle=0;html=1;" vertex="1" parent="1">
          <mxGeometry x="6987" y="130" width="70" height="20" as="geometry" />
        </mxCell>
        <mxCell id="WbGuoj4w0zxw0xvTcWQJ-213" value="93" style="strokeWidth=1;fontStyle=0;html=1;" vertex="1" parent="1">
          <mxGeometry x="7057" y="130" width="70" height="20" as="geometry" />
        </mxCell>
        <mxCell id="WbGuoj4w0zxw0xvTcWQJ-214" value="94" style="strokeWidth=1;fontStyle=0;html=1;" vertex="1" parent="1">
          <mxGeometry x="7127" y="130" width="70" height="20" as="geometry" />
        </mxCell>
        <mxCell id="WbGuoj4w0zxw0xvTcWQJ-215" value="95" style="strokeWidth=1;fontStyle=0;html=1;" vertex="1" parent="1">
          <mxGeometry x="7197" y="130" width="70" height="20" as="geometry" />
        </mxCell>
        <mxCell id="WbGuoj4w0zxw0xvTcWQJ-216" value="96" style="strokeWidth=1;fontStyle=0;html=1;" vertex="1" parent="1">
          <mxGeometry x="7267" y="130" width="70" height="20" as="geometry" />
        </mxCell>
        <mxCell id="WbGuoj4w0zxw0xvTcWQJ-217" value="97" style="strokeWidth=1;fontStyle=0;html=1;" vertex="1" parent="1">
          <mxGeometry x="7337" y="130" width="70" height="20" as="geometry" />
        </mxCell>
        <mxCell id="WbGuoj4w0zxw0xvTcWQJ-218" value="98" style="strokeWidth=1;fontStyle=0;html=1;" vertex="1" parent="1">
          <mxGeometry x="7407" y="130" width="70" height="20" as="geometry" />
        </mxCell>
        <mxCell id="WbGuoj4w0zxw0xvTcWQJ-219" value="100" style="strokeWidth=1;fontStyle=0;html=1;" vertex="1" parent="1">
          <mxGeometry x="7477" y="130" width="70" height="20" as="geometry" />
        </mxCell>
        <mxCell id="WbGuoj4w0zxw0xvTcWQJ-220" value="101" style="strokeWidth=1;fontStyle=0;html=1;" vertex="1" parent="1">
          <mxGeometry x="7547" y="130" width="70" height="20" as="geometry" />
        </mxCell>
        <mxCell id="WbGuoj4w0zxw0xvTcWQJ-221" value="102" style="strokeWidth=1;fontStyle=0;html=1;" vertex="1" parent="1">
          <mxGeometry x="7617" y="130" width="70" height="20" as="geometry" />
        </mxCell>
        <mxCell id="WbGuoj4w0zxw0xvTcWQJ-222" value="103" style="strokeWidth=1;fontStyle=0;html=1;" vertex="1" parent="1">
          <mxGeometry x="7687" y="130" width="70" height="20" as="geometry" />
        </mxCell>
        <mxCell id="WbGuoj4w0zxw0xvTcWQJ-223" value="104" style="strokeWidth=1;fontStyle=0;html=1;" vertex="1" parent="1">
          <mxGeometry x="7757" y="130" width="70" height="20" as="geometry" />
        </mxCell>
        <mxCell id="WbGuoj4w0zxw0xvTcWQJ-224" value="105" style="strokeWidth=1;fontStyle=0;html=1;" vertex="1" parent="1">
          <mxGeometry x="7827" y="130" width="73" height="20" as="geometry" />
        </mxCell>
        <mxCell id="WbGuoj4w0zxw0xvTcWQJ-225" value="9" style="whiteSpace=wrap;html=1;strokeWidth=2;fillColor=#CCCCCC;gradientColor=none;fontSize=14;align=center;strokeColor=#999999;" vertex="1" parent="1">
          <mxGeometry x="2090" y="310" width="490" height="20" as="geometry" />
        </mxCell>
        <mxCell id="WbGuoj4w0zxw0xvTcWQJ-226" value="10" style="whiteSpace=wrap;html=1;strokeWidth=2;fillColor=#CCCCCC;gradientColor=none;fontSize=14;align=center;strokeColor=#999999;" vertex="1" parent="1">
          <mxGeometry x="2443" y="330" width="1890" height="20" as="geometry" />
        </mxCell>
        <mxCell id="WbGuoj4w0zxw0xvTcWQJ-227" value="11" style="whiteSpace=wrap;html=1;strokeWidth=2;fillColor=#CCCCCC;gradientColor=none;fontSize=14;align=center;strokeColor=#999999;" vertex="1" parent="1">
          <mxGeometry x="4333" y="350" width="700" height="20" as="geometry" />
        </mxCell>
        <mxCell id="WbGuoj4w0zxw0xvTcWQJ-228" value="12" style="whiteSpace=wrap;html=1;strokeWidth=2;fillColor=#CCCCCC;gradientColor=none;fontSize=14;align=center;strokeColor=#999999;" vertex="1" parent="1">
          <mxGeometry x="5033" y="370" width="343" height="20" as="geometry" />
        </mxCell>
        <mxCell id="WbGuoj4w0zxw0xvTcWQJ-229" value="13" style="whiteSpace=wrap;html=1;strokeWidth=2;fillColor=#CCCCCC;gradientColor=none;fontSize=14;align=center;strokeColor=#999999;" vertex="1" parent="1">
          <mxGeometry x="5377" y="390" width="1053" height="20" as="geometry" />
        </mxCell>
        <mxCell id="WbGuoj4w0zxw0xvTcWQJ-230" value="14" style="whiteSpace=wrap;html=1;strokeWidth=2;fillColor=#CCCCCC;gradientColor=none;fontSize=14;align=center;strokeColor=#999999;" vertex="1" parent="1">
          <mxGeometry x="5377" y="410" width="353" height="20" as="geometry" />
        </mxCell>
        <mxCell id="WbGuoj4w0zxw0xvTcWQJ-231" value="15" style="whiteSpace=wrap;html=1;strokeWidth=2;fillColor=#CCCCCC;gradientColor=none;fontSize=14;align=center;strokeColor=#999999;" vertex="1" parent="1">
          <mxGeometry x="6430" y="430" width="143.5" height="20" as="geometry" />
        </mxCell>
        <mxCell id="WbGuoj4w0zxw0xvTcWQJ-232" value="16" style="whiteSpace=wrap;html=1;strokeWidth=2;fillColor=#CCCCCC;gradientColor=none;fontSize=14;align=center;strokeColor=#999999;" vertex="1" parent="1">
          <mxGeometry x="6573.5" y="450" width="1053" height="20" as="geometry" />
        </mxCell>
      </root>
    </mxGraphModel>
  </diagram>
</mxfile>
